<?xml version="1.0" standalone="no"?>
<!DOCTYPE svg PUBLIC "-//W3C//DTD SVG 20010904//EN"
 "http://www.w3.org/TR/2001/REC-SVG-20010904/DTD/svg10.dtd">
<svg version="1.0" xmlns="http://www.w3.org/2000/svg"
 width="500.000000pt" height="500.000000pt" viewBox="0 0 500.000000 500.000000"
 preserveAspectRatio="xMidYMid meet">
<metadata>
Created by potrace 1.11, written by Peter Selinger 2001-2013
</metadata>
<g transform="translate(0.000000,500.000000) scale(0.100000,-0.100000)"
fill="#000000" stroke="none">
<path d="M2420 4764 c-8 -8 -121 -119 -250 -247 -227 -223 -262 -261 -395
-411 -33 -38 -67 -76 -75 -85 -20 -21 -139 -167 -165 -201 -11 -15 -59 -78
-106 -141 -188 -249 -339 -491 -464 -746 -100 -203 -171 -396 -202 -553 -27
-135 -31 -179 -28 -330 3 -154 8 -222 20 -295 2 -16 7 -48 10 -70 4 -22 8 -48
11 -57 3 -10 8 -30 10 -45 6 -35 31 -121 55 -196 190 -574 608 -975 1164
-1116 184 -46 482 -64 670 -39 180 23 419 98 569 178 394 210 687 587 822
1055 27 95 57 251 71 365 10 81 10 389 1 450 -53 347 -235 749 -545 1204 -53
77 -99 144 -104 150 -5 6 -35 45 -66 86 -248 330 -557 665 -936 1018 -25 23
-47 42 -49 41 -2 0 -10 -7 -18 -15z m105 -1790 c83 -88 283 -333 338 -414 17
-25 34 -47 37 -50 12 -8 144 -211 190 -289 79 -137 166 -338 186 -432 27 -130
23 -262 -12 -402 -16 -65 -15 -60 -68 -167 -99 -200 -280 -340 -518 -402 -66
-18 -112 -22 -228 -22 -192 0 -271 15 -409 81 -343 162 -526 564 -428 938 40
156 158 389 307 607 62 91 215 295 267 354 10 12 38 46 63 75 25 30 78 91 118
136 l73 83 32 -38 c18 -20 41 -46 52 -58z"/>
</g>
</svg>
