<svg id="svg" version="1.1" width="400" height="100" viewBox="0 0 400 100" xmlns="http://www.w3.org/2000/svg" xmlns:xlink="http://www.w3.org/1999/xlink" ><g id="svgg"><path id="path0" d="M48.333 5.359 C 43.878 9.545,38.492 15.089,35.600 18.464 C 34.714 19.498,33.860 20.483,33.703 20.651 C 33.545 20.820,32.929 21.574,32.333 22.327 C 31.738 23.080,31.025 23.977,30.750 24.319 C 30.475 24.661,30.100 25.148,29.917 25.401 C 29.042 26.609,28.160 27.778,27.926 28.042 C 27.783 28.202,27.667 28.408,27.667 28.500 C 27.667 28.592,27.600 28.667,27.519 28.667 C 27.438 28.667,27.328 28.798,27.274 28.958 C 27.193 29.201,26.362 30.458,25.870 31.083 C 25.293 31.816,22.802 35.805,22.330 36.750 C 22.148 37.117,21.852 37.642,21.674 37.917 C 21.496 38.192,20.999 39.129,20.571 40.000 C 20.142 40.871,19.513 42.146,19.173 42.833 C 18.832 43.521,18.419 44.496,18.255 45.000 C 18.091 45.504,17.860 46.104,17.743 46.333 C 17.465 46.876,16.765 48.981,16.441 50.250 C 16.301 50.800,16.013 51.887,15.801 52.667 C 15.242 54.728,15.236 62.618,15.792 65.333 C 15.990 66.296,16.272 67.721,16.419 68.500 C 17.297 73.131,19.832 78.698,22.989 82.925 C 24.186 84.529,28.157 88.667,28.499 88.667 C 28.591 88.667,28.814 88.814,28.994 88.994 C 29.304 89.304,29.808 89.661,31.397 90.697 C 32.224 91.236,34.449 92.500,34.571 92.500 C 34.619 92.500,35.129 92.714,35.704 92.976 C 36.279 93.237,37.162 93.585,37.667 93.748 C 38.171 93.911,38.658 94.101,38.750 94.171 C 38.842 94.240,39.517 94.424,40.250 94.579 C 40.983 94.734,41.808 94.927,42.083 95.008 C 45.020 95.871,56.094 95.865,57.250 95.000 C 57.342 94.931,57.792 94.821,58.250 94.755 C 59.692 94.547,64.243 92.877,65.333 92.157 C 65.471 92.066,65.958 91.803,66.417 91.573 C 69.387 90.079,73.237 86.778,75.870 83.470 C 77.299 81.673,78.082 80.447,79.415 77.917 C 80.833 75.225,82.204 71.516,82.757 68.873 C 82.906 68.164,83.062 67.433,83.104 67.250 C 84.102 62.881,84.090 54.747,83.079 51.167 C 82.859 50.387,82.592 49.375,82.486 48.917 C 82.379 48.458,82.196 47.928,82.079 47.739 C 81.961 47.549,81.707 46.880,81.513 46.252 C 81.319 45.623,81.099 45.028,81.024 44.930 C 80.950 44.831,80.790 44.487,80.669 44.167 C 80.346 43.311,78.250 39.077,77.576 37.917 C 77.256 37.367,76.847 36.608,76.666 36.230 C 76.485 35.853,76.224 35.450,76.085 35.335 C 75.947 35.220,75.833 35.058,75.833 34.974 C 75.833 34.838,73.047 30.486,72.168 29.250 C 70.908 27.478,69.362 25.399,68.463 24.269 C 67.089 22.543,65.561 20.667,65.188 20.250 C 65.024 20.067,64.450 19.392,63.913 18.750 C 63.376 18.108,62.894 17.546,62.843 17.500 C 62.792 17.454,62.419 17.042,62.014 16.583 C 60.450 14.812,54.192 8.333,54.045 8.333 C 54.008 8.333,53.738 8.090,53.445 7.792 C 51.857 6.177,49.823 4.334,49.634 4.337 C 49.514 4.339,48.929 4.799,48.333 5.359 M52.067 41.583 C 52.648 42.225,53.392 43.087,53.720 43.500 C 54.048 43.913,54.469 44.438,54.655 44.667 C 59.003 50.026,62.000 54.468,63.762 58.167 C 64.177 59.038,64.627 59.952,64.763 60.200 C 66.424 63.236,67.087 70.851,65.841 72.583 C 65.775 72.675,65.584 73.200,65.416 73.749 C 65.248 74.298,64.898 75.108,64.638 75.548 C 64.379 75.988,64.167 76.390,64.167 76.442 C 64.167 76.493,63.942 76.819,63.667 77.167 C 63.392 77.514,63.167 77.852,63.167 77.919 C 63.167 78.274,60.348 80.788,59.323 81.347 C 58.916 81.569,58.544 81.802,58.495 81.867 C 58.354 82.054,56.943 82.659,56.639 82.663 C 56.486 82.665,56.336 82.740,56.306 82.830 C 56.245 83.007,53.840 83.667,53.257 83.667 C 53.061 83.667,52.819 83.748,52.720 83.847 C 52.471 84.096,47.333 84.101,46.870 83.853 C 46.678 83.750,46.323 83.667,46.080 83.667 C 45.534 83.667,42.950 83.017,42.835 82.851 C 42.788 82.784,42.295 82.561,41.739 82.356 C 40.381 81.854,37.585 79.750,36.576 78.470 C 34.218 75.478,33.208 72.979,32.792 69.110 C 32.597 67.290,32.763 65.238,33.206 64.000 C 33.255 63.862,33.429 63.262,33.594 62.667 C 33.758 62.071,33.944 61.508,34.007 61.417 C 34.070 61.325,34.278 60.828,34.468 60.313 C 34.658 59.797,35.128 58.784,35.513 58.063 C 35.898 57.341,36.363 56.450,36.547 56.083 C 36.730 55.717,37.039 55.192,37.232 54.917 C 37.649 54.324,37.898 53.926,38.274 53.250 C 38.426 52.975,38.840 52.359,39.192 51.882 C 39.545 51.405,39.833 50.974,39.833 50.924 C 39.833 50.874,39.948 50.702,40.089 50.542 C 40.229 50.381,40.848 49.549,41.464 48.693 C 43.215 46.258,46.361 42.447,48.640 40.000 C 49.110 39.496,49.496 39.008,49.498 38.917 C 49.500 38.825,49.841 39.125,50.256 39.583 C 50.672 40.042,51.487 40.942,52.067 41.583 " stroke="none" fill="#b42c2c" fill-rule="evenodd"></path><path id="path1" d="M191.667 35.258 L 191.667 42.350 190.875 41.527 C 187.748 38.276,181.141 38.245,177.356 41.465 C 176.581 42.124,176.114 42.655,174.915 44.240 C 174.780 44.418,174.542 44.906,174.385 45.324 C 174.229 45.741,174.039 46.126,173.964 46.179 C 173.888 46.231,173.672 46.943,173.484 47.762 C 173.295 48.580,173.067 49.512,172.976 49.833 C 172.699 50.817,172.890 55.214,173.285 56.917 C 174.260 61.123,177.239 64.483,180.833 65.432 C 181.761 65.676,185.034 65.773,185.939 65.582 C 187.106 65.336,187.833 65.114,187.833 65.005 C 187.833 64.940,188.139 64.786,188.512 64.663 C 188.885 64.540,189.354 64.266,189.554 64.056 C 189.753 63.845,189.996 63.671,190.093 63.670 C 190.342 63.665,191.614 62.261,191.746 61.845 C 192.037 60.930,192.333 62.075,192.333 64.111 L 192.333 65.176 194.542 65.130 C 196.645 65.086,196.747 65.067,196.695 64.750 C 196.665 64.567,196.600 56.260,196.550 46.292 L 196.460 28.167 194.063 28.167 L 191.667 28.167 191.667 35.258 M367.333 33.698 C 367.012 33.789,366.675 33.921,366.583 33.991 C 366.492 34.061,365.760 34.296,364.958 34.514 L 363.500 34.910 363.500 37.205 L 363.500 39.500 361.500 39.500 L 359.500 39.500 359.500 41.500 L 359.500 43.500 361.500 43.500 L 363.500 43.500 363.500 51.553 C 363.500 59.102,363.602 61.229,363.987 61.750 C 364.055 61.842,364.212 62.179,364.336 62.500 C 364.615 63.224,365.393 64.149,366.071 64.563 C 366.353 64.735,366.621 64.924,366.667 64.983 C 367.134 65.585,371.654 65.898,373.500 65.456 L 374.417 65.237 374.385 63.351 C 374.348 61.096,374.496 61.282,372.895 61.480 C 368.589 62.014,368.333 61.421,368.333 50.908 L 368.333 43.500 371.500 43.500 L 374.667 43.500 374.667 41.500 L 374.667 39.500 371.504 39.500 L 368.341 39.500 368.296 36.555 C 368.247 33.401,368.258 33.435,367.333 33.698 M298.083 39.185 C 296.695 39.291,294.667 39.781,294.667 40.009 C 294.667 40.082,294.396 40.230,294.065 40.339 C 293.696 40.461,292.930 41.065,292.084 41.902 L 290.705 43.265 290.604 42.424 C 290.548 41.962,290.502 41.152,290.501 40.625 L 290.500 39.667 288.231 39.667 L 285.961 39.667 286.074 40.042 C 286.136 40.248,286.230 48.273,286.284 57.875 L 286.382 75.333 288.774 75.333 L 291.167 75.333 291.167 68.880 L 291.167 62.426 291.630 62.921 C 294.895 66.409,300.898 66.740,305.417 63.682 C 306.254 63.115,307.703 61.534,307.804 61.078 C 307.834 60.943,307.922 60.833,308.001 60.833 C 308.266 60.833,309.473 58.094,309.690 57.000 C 309.809 56.404,309.983 55.863,310.078 55.798 C 310.294 55.649,310.314 49.059,310.100 48.583 C 310.018 48.400,309.782 47.622,309.576 46.854 C 309.370 46.086,309.137 45.411,309.059 45.354 C 308.981 45.297,308.747 44.889,308.539 44.449 C 308.074 43.460,308.010 43.378,306.649 41.981 C 304.363 39.635,302.049 38.880,298.083 39.185 M111.833 39.426 C 111.237 39.554,110.361 39.848,109.885 40.079 C 109.410 40.311,108.960 40.500,108.885 40.500 C 108.811 40.500,108.532 40.688,108.266 40.917 C 107.999 41.146,107.720 41.333,107.644 41.333 C 107.438 41.333,105.167 43.654,105.167 43.865 C 105.167 43.965,105.060 44.130,104.930 44.232 C 104.581 44.505,103.576 46.624,103.340 47.583 C 103.228 48.042,103.049 48.597,102.943 48.817 C 102.674 49.375,102.678 55.804,102.948 56.350 C 103.057 56.570,103.267 57.186,103.414 57.719 C 103.862 59.338,105.453 61.869,106.656 62.876 C 107.482 63.567,108.719 64.356,109.375 64.611 C 109.765 64.762,110.169 64.951,110.273 65.031 C 111.318 65.831,118.931 65.820,119.500 65.018 C 119.546 64.953,119.958 64.762,120.417 64.594 C 120.875 64.426,121.405 64.149,121.594 63.978 C 121.783 63.807,122.013 63.667,122.103 63.667 C 122.598 63.667,125.207 60.787,125.614 59.792 C 125.754 59.448,125.926 59.167,125.995 59.167 C 126.135 59.167,126.833 57.059,126.833 56.634 C 126.833 56.484,126.906 56.336,126.995 56.306 C 127.544 56.118,127.559 49.202,127.013 48.215 C 126.922 48.051,126.729 47.483,126.584 46.953 C 125.018 41.225,118.632 37.966,111.833 39.426 M141.562 39.473 C 141.093 39.635,140.581 39.895,140.425 40.051 C 140.270 40.206,140.073 40.333,139.988 40.333 C 139.574 40.333,138.263 41.892,137.552 43.230 L 137.186 43.917 137.177 42.302 C 137.171 41.413,137.092 40.640,137.000 40.583 C 136.908 40.527,136.833 40.295,136.833 40.069 L 136.833 39.657 134.708 39.703 C 132.953 39.742,132.593 39.792,132.636 39.992 C 132.665 40.125,132.734 45.844,132.788 52.700 L 132.887 65.167 135.266 65.167 L 137.646 65.167 137.698 57.292 C 137.736 51.557,137.804 49.326,137.949 49.083 C 138.059 48.900,138.277 48.337,138.433 47.833 C 139.198 45.365,141.416 43.750,144.042 43.750 L 145.500 43.750 145.500 41.458 L 145.500 39.167 143.958 39.172 C 142.928 39.176,142.133 39.275,141.562 39.473 M153.804 39.475 C 153.009 39.638,152.259 39.851,152.138 39.947 C 152.016 40.044,151.542 40.248,151.083 40.400 C 149.397 40.962,149.194 41.482,149.986 43.219 C 150.177 43.639,150.333 44.094,150.333 44.231 C 150.333 44.644,150.640 44.705,151.210 44.406 C 152.548 43.705,152.975 43.530,153.833 43.333 C 154.337 43.218,154.850 43.044,154.971 42.947 C 155.273 42.707,158.978 42.698,159.133 42.936 C 159.197 43.037,159.527 43.208,159.864 43.319 C 161.456 43.837,162.667 45.982,162.667 48.281 L 162.667 48.833 161.010 48.833 C 160.085 48.833,159.307 48.907,159.250 49.000 C 159.193 49.092,158.870 49.167,158.532 49.167 C 157.635 49.168,154.998 49.654,154.417 49.925 C 154.142 50.053,153.582 50.275,153.174 50.417 C 151.412 51.031,149.179 52.972,148.482 54.495 C 148.292 54.910,148.050 55.430,147.943 55.651 C 147.695 56.165,147.678 60.630,147.924 60.798 C 148.019 60.863,148.203 61.245,148.332 61.646 C 149.850 66.356,158.465 67.183,162.458 63.001 C 163.097 62.333,163.326 62.470,163.331 63.521 C 163.332 63.853,163.380 64.359,163.438 64.646 L 163.542 65.167 165.678 65.167 C 168.133 65.167,168.009 65.245,167.805 63.833 C 167.719 63.237,167.594 58.962,167.526 54.333 C 167.419 47.104,167.364 45.834,167.132 45.333 C 166.984 45.012,166.780 44.483,166.679 44.158 C 166.253 42.781,164.795 41.038,163.532 40.396 C 163.194 40.224,162.875 40.028,162.825 39.960 C 162.293 39.249,156.438 38.934,153.804 39.475 M211.333 39.284 C 210.611 39.410,209.273 39.829,209.176 39.961 C 209.125 40.030,208.693 40.266,208.217 40.485 C 207.740 40.703,207.311 40.984,207.264 41.108 C 207.216 41.232,207.075 41.333,206.949 41.333 C 206.664 41.333,204.722 43.409,204.376 44.083 C 204.236 44.358,204.074 44.621,204.018 44.667 C 203.884 44.776,203.606 45.359,203.104 46.588 C 201.558 50.370,201.916 57.477,203.792 60.268 C 203.861 60.370,204.063 60.670,204.242 60.935 C 204.788 61.744,206.556 63.478,207.042 63.682 C 207.294 63.787,207.500 63.928,207.500 63.995 C 207.500 64.107,207.750 64.229,209.583 65.010 C 211.530 65.839,216.083 65.933,220.208 65.230 C 220.552 65.171,220.833 65.066,220.833 64.997 C 220.833 64.927,221.115 64.818,221.458 64.753 C 222.904 64.482,223.607 63.822,223.042 63.266 C 222.973 63.198,222.800 62.567,222.658 61.863 C 222.362 60.402,222.221 60.334,220.811 60.968 C 219.776 61.434,217.960 61.698,215.701 61.710 C 211.954 61.730,210.204 60.959,208.145 58.383 C 207.819 57.975,207.167 56.280,207.167 55.841 C 207.167 55.669,207.103 55.503,207.025 55.472 C 206.948 55.442,206.834 54.985,206.774 54.458 L 206.664 53.500 215.582 53.500 L 224.500 53.500 224.500 51.222 C 224.500 49.106,224.262 46.861,224.017 46.667 C 223.959 46.621,223.740 46.040,223.530 45.375 C 223.319 44.710,223.096 44.166,223.032 44.165 C 222.969 44.164,222.771 43.859,222.593 43.488 C 221.072 40.313,216.100 38.457,211.333 39.284 M233.948 39.500 C 233.141 39.670,232.391 39.880,232.282 39.966 C 232.173 40.052,231.708 40.248,231.250 40.400 C 229.811 40.880,229.118 42.099,229.970 42.653 C 230.052 42.706,230.221 43.152,230.346 43.644 C 230.635 44.784,230.743 44.813,232.074 44.107 C 232.680 43.785,233.605 43.430,234.129 43.317 C 234.654 43.204,235.182 43.036,235.302 42.943 C 235.631 42.690,239.208 42.708,239.293 42.963 C 239.330 43.075,239.486 43.167,239.639 43.167 C 241.079 43.171,242.587 45.341,242.786 47.697 L 242.880 48.810 241.232 48.885 C 238.856 48.992,234.946 49.631,234.417 49.997 C 234.325 50.060,233.781 50.284,233.208 50.493 C 232.635 50.703,232.167 50.922,232.167 50.980 C 232.167 51.038,231.956 51.179,231.698 51.293 C 230.516 51.816,228.800 53.845,228.400 55.192 C 228.255 55.682,228.068 56.214,227.985 56.373 C 227.642 57.028,227.819 59.688,228.295 61.045 C 228.730 62.284,230.385 64.500,230.875 64.500 C 230.961 64.500,231.241 64.649,231.495 64.830 C 233.154 66.011,237.887 65.979,240.242 64.772 C 241.347 64.205,241.541 64.065,242.529 63.121 C 243.306 62.379,243.500 62.435,243.500 63.406 C 243.500 63.801,243.547 64.361,243.605 64.650 L 243.710 65.176 245.977 65.130 L 248.244 65.083 248.190 64.333 C 248.161 63.921,248.062 63.493,247.970 63.382 C 247.868 63.258,247.774 60.165,247.725 55.299 C 247.639 46.648,247.557 45.619,246.828 44.045 C 246.556 43.457,246.333 42.932,246.333 42.877 C 246.333 42.528,244.379 40.712,243.438 40.187 C 241.546 39.131,237.193 38.816,233.948 39.500 M270.299 39.415 C 268.215 39.942,265.814 41.855,265.323 43.382 C 265.199 43.768,265.019 44.137,264.924 44.202 C 264.680 44.369,264.691 48.641,264.935 48.798 C 265.037 48.863,265.217 49.190,265.337 49.524 C 265.670 50.455,267.212 51.990,268.414 52.587 C 268.779 52.768,269.175 53.007,269.294 53.118 C 269.413 53.229,269.920 53.449,270.422 53.607 C 270.923 53.765,271.333 53.956,271.333 54.030 C 271.333 54.105,271.436 54.167,271.562 54.167 C 271.887 54.167,273.360 54.836,273.631 55.107 C 273.755 55.231,273.924 55.333,274.005 55.333 C 274.327 55.333,275.460 56.677,275.561 57.178 C 276.173 60.239,274.677 61.833,271.193 61.833 C 269.803 61.833,267.038 61.306,266.833 61.001 C 266.676 60.768,265.311 60.186,265.105 60.265 C 264.993 60.308,264.720 61.016,264.499 61.838 C 264.278 62.661,264.038 63.333,263.965 63.333 C 263.893 63.333,263.833 63.487,263.833 63.676 C 263.833 64.010,265.308 64.833,265.908 64.833 C 266.035 64.833,266.164 64.902,266.194 64.986 C 266.547 65.957,274.120 65.854,276.117 64.852 C 276.502 64.658,276.879 64.500,276.955 64.500 C 277.030 64.500,277.353 64.278,277.671 64.007 C 279.953 62.063,280.417 61.037,280.417 57.932 L 280.417 55.583 279.842 54.583 C 279.349 53.727,278.445 52.706,277.500 51.941 C 277.362 51.829,276.951 51.591,276.586 51.411 C 276.221 51.231,275.828 50.996,275.713 50.889 C 275.598 50.782,275.110 50.566,274.627 50.409 C 274.145 50.251,273.675 50.064,273.583 49.992 C 273.491 49.920,273.035 49.711,272.570 49.528 C 270.202 48.594,269.177 47.280,269.438 45.513 C 269.568 44.627,270.590 43.413,271.345 43.248 C 271.613 43.188,271.833 43.071,271.833 42.987 C 271.833 42.792,274.879 42.784,275.092 42.977 C 275.179 43.057,275.625 43.211,276.083 43.322 C 276.542 43.432,277.236 43.708,277.627 43.936 C 278.444 44.412,278.597 44.369,278.756 43.623 C 278.820 43.326,278.939 43.000,279.020 42.899 C 279.203 42.671,279.662 41.183,279.665 40.812 C 279.666 40.661,279.427 40.443,279.125 40.321 C 278.827 40.201,278.543 40.045,278.495 39.975 C 278.052 39.341,272.182 38.940,270.299 39.415 M322.972 39.433 C 321.871 39.669,319.661 40.648,319.210 41.099 C 319.081 41.228,318.914 41.333,318.839 41.333 C 318.607 41.333,316.333 43.686,316.333 43.926 C 316.333 44.049,316.230 44.210,316.104 44.283 C 315.699 44.518,314.714 46.751,314.418 48.105 C 314.260 48.826,314.064 49.589,313.982 49.800 C 313.789 50.298,313.788 54.917,313.982 55.294 C 314.064 55.453,314.219 56.071,314.326 56.667 C 314.501 57.635,315.554 60.181,315.999 60.713 C 316.093 60.825,316.482 61.309,316.863 61.789 C 317.243 62.269,317.692 62.705,317.861 62.759 C 318.029 62.812,318.167 62.925,318.167 63.009 C 318.167 63.093,318.478 63.370,318.858 63.623 C 319.239 63.876,319.632 64.139,319.733 64.208 C 320.309 64.598,322.221 65.330,323.072 65.486 C 325.161 65.868,330.314 65.545,330.666 65.009 C 330.712 64.939,331.050 64.787,331.417 64.672 C 333.124 64.135,335.695 61.925,336.559 60.250 C 336.749 59.883,336.988 59.497,337.091 59.391 C 337.194 59.285,337.413 58.760,337.578 58.224 C 337.744 57.688,337.937 57.175,338.008 57.083 C 338.733 56.148,338.732 48.346,338.007 47.417 C 337.936 47.325,337.745 46.837,337.584 46.333 C 337.423 45.829,337.197 45.304,337.082 45.167 C 336.967 45.029,336.742 44.654,336.582 44.333 C 336.262 43.694,336.202 43.618,335.101 42.446 C 332.468 39.644,327.609 38.436,322.972 39.433 M353.000 39.471 C 351.520 40.021,350.002 41.293,349.383 42.500 C 349.218 42.821,349.039 43.121,348.986 43.167 C 348.932 43.212,348.803 43.400,348.699 43.583 C 348.547 43.851,348.509 43.622,348.503 42.417 C 348.499 41.592,348.450 40.635,348.393 40.292 L 348.290 39.667 346.127 39.667 C 344.141 39.667,343.973 39.690,344.076 39.956 C 344.137 40.116,344.232 45.853,344.287 52.706 L 344.387 65.167 346.766 65.167 L 349.146 65.167 349.207 57.292 C 349.268 49.395,349.392 47.771,349.966 47.339 C 350.030 47.290,350.258 46.929,350.472 46.537 C 350.982 45.600,351.829 44.793,352.707 44.405 C 353.097 44.233,353.470 44.015,353.536 43.921 C 353.603 43.824,354.344 43.750,355.244 43.750 L 356.833 43.750 356.833 41.458 L 356.833 39.167 355.292 39.180 C 354.290 39.188,353.487 39.290,353.000 39.471 M216.303 43.235 C 218.305 44.236,219.659 46.543,219.665 48.958 L 219.667 49.833 213.250 49.833 C 206.205 49.833,206.447 49.871,206.991 48.873 C 207.078 48.714,207.309 48.077,207.505 47.458 C 207.700 46.840,207.911 46.333,207.973 46.333 C 208.035 46.333,208.178 46.124,208.291 45.868 C 208.722 44.895,210.747 43.167,211.456 43.167 C 211.572 43.167,211.667 43.097,211.667 43.011 C 211.667 42.483,215.136 42.651,216.303 43.235 M116.627 42.990 C 116.786 43.076,117.263 43.270,117.685 43.421 C 119.358 44.017,120.848 45.838,121.772 48.417 C 122.303 49.898,122.493 54.608,122.059 55.517 C 121.954 55.737,121.702 56.398,121.498 56.986 C 121.295 57.573,120.987 58.206,120.814 58.392 C 120.642 58.578,120.500 58.797,120.500 58.878 C 120.500 59.032,119.206 60.343,118.507 60.898 C 116.942 62.138,113.043 62.138,111.499 60.898 C 110.527 60.117,109.500 59.104,109.500 58.925 C 109.500 58.818,109.358 58.578,109.186 58.392 C 109.013 58.206,108.705 57.573,108.502 56.986 C 108.298 56.398,108.046 55.736,107.941 55.516 C 107.681 54.971,107.683 49.855,107.943 49.317 C 108.050 49.097,108.260 48.504,108.411 48.000 C 108.562 47.496,108.832 46.880,109.010 46.632 C 109.188 46.383,109.333 46.115,109.333 46.036 C 109.333 45.874,110.705 44.437,111.380 43.892 C 111.625 43.694,112.202 43.436,112.662 43.318 C 113.123 43.200,113.500 43.043,113.500 42.968 C 113.500 42.780,116.274 42.799,116.627 42.990 M185.417 43.000 C 185.473 43.092,185.742 43.167,186.014 43.167 C 186.587 43.167,188.182 43.697,188.595 44.025 C 189.306 44.590,190.366 45.747,190.611 46.224 C 190.759 46.514,190.938 46.788,191.008 46.834 C 191.577 47.206,191.901 53.527,191.478 55.986 C 190.196 63.422,179.860 63.499,178.321 56.083 C 178.207 55.533,178.051 55.012,177.974 54.925 C 177.788 54.716,177.792 50.446,177.977 50.242 C 178.057 50.155,178.214 49.596,178.327 49.000 C 178.902 45.964,181.728 43.167,184.219 43.167 C 184.465 43.167,184.667 43.092,184.667 43.000 C 184.667 42.908,184.812 42.833,184.990 42.833 C 185.168 42.833,185.360 42.908,185.417 43.000 M327.961 42.990 C 328.120 43.076,328.662 43.333,329.167 43.562 C 330.438 44.138,332.500 46.385,332.500 47.194 C 332.500 47.273,332.644 47.655,332.821 48.043 C 333.635 49.839,333.762 55.232,333.013 56.250 C 332.946 56.342,332.755 56.792,332.590 57.250 C 332.424 57.708,332.149 58.238,331.978 58.427 C 331.807 58.617,331.667 58.850,331.667 58.945 C 331.667 59.094,330.473 60.261,329.590 60.975 C 328.089 62.189,324.086 62.074,322.533 60.771 C 321.863 60.210,320.667 59.028,320.667 58.929 C 320.667 58.879,320.440 58.471,320.164 58.021 C 319.887 57.572,319.526 56.672,319.361 56.021 C 319.195 55.370,319.009 54.787,318.947 54.725 C 318.775 54.552,318.811 50.537,318.988 50.206 C 319.073 50.047,319.230 49.467,319.337 48.917 C 319.444 48.367,319.671 47.654,319.843 47.333 C 320.014 47.012,320.264 46.525,320.400 46.250 C 321.039 44.950,323.319 43.184,324.375 43.170 C 324.535 43.168,324.667 43.092,324.667 43.000 C 324.667 42.786,327.568 42.777,327.961 42.990 M300.725 43.574 C 301.456 43.890,301.536 43.949,302.767 45.066 C 303.262 45.515,303.667 45.953,303.667 46.040 C 303.667 46.126,303.818 46.390,304.003 46.625 C 304.188 46.860,304.460 47.472,304.606 47.985 C 304.753 48.497,304.958 49.022,305.062 49.151 C 305.320 49.471,305.321 55.192,305.063 55.516 C 304.961 55.645,304.786 56.138,304.675 56.613 C 304.360 57.958,303.181 59.667,301.998 60.494 C 301.678 60.718,301.379 60.953,301.333 61.017 C 300.617 62.018,295.989 61.859,294.429 60.779 C 291.841 58.988,291.306 57.741,291.206 53.272 C 291.095 48.332,291.953 45.831,294.238 44.437 C 294.519 44.265,294.787 44.066,294.833 43.995 C 295.324 43.231,299.282 42.948,300.725 43.574 M162.793 54.875 C 162.706 57.493,162.457 58.683,161.865 59.326 C 161.710 59.494,161.430 59.808,161.242 60.024 C 160.433 60.955,159.323 61.584,158.161 61.770 C 157.793 61.829,157.452 61.942,157.403 62.022 C 157.279 62.222,156.210 62.204,156.083 62.000 C 156.027 61.908,155.821 61.833,155.626 61.833 C 153.287 61.833,151.520 57.396,153.158 55.638 C 153.346 55.436,153.500 55.170,153.500 55.046 C 153.500 54.923,153.762 54.667,154.083 54.478 C 154.404 54.289,154.667 54.084,154.667 54.022 C 154.667 53.961,155.135 53.736,155.708 53.522 C 156.281 53.309,156.865 53.076,157.005 53.005 C 157.575 52.717,159.512 52.481,162.314 52.358 L 162.878 52.333 162.793 54.875 M243.167 54.407 C 243.167 55.609,243.097 56.524,243.000 56.583 C 242.908 56.640,242.833 56.861,242.833 57.074 C 242.833 59.180,240.127 61.833,237.980 61.833 C 237.818 61.833,237.640 61.908,237.583 62.000 C 237.451 62.213,236.583 62.216,236.206 62.004 C 236.047 61.914,235.613 61.766,235.243 61.673 C 233.762 61.305,232.739 59.660,232.767 57.691 C 232.777 57.018,232.852 56.418,232.934 56.358 C 233.016 56.299,233.258 55.894,233.470 55.458 C 233.683 55.023,233.916 54.667,233.987 54.667 C 234.059 54.667,234.307 54.492,234.537 54.278 C 234.768 54.065,235.397 53.721,235.936 53.515 C 236.476 53.309,237.038 53.077,237.186 52.999 C 237.335 52.921,238.047 52.777,238.770 52.678 C 239.961 52.514,240.632 52.458,242.542 52.364 L 243.167 52.333 243.167 54.407 M255.385 59.226 C 253.165 60.362,253.094 64.360,255.275 65.413 C 256.937 66.215,259.833 65.274,259.833 63.932 C 259.833 63.786,259.908 63.667,260.000 63.667 C 260.387 63.667,260.187 61.245,259.732 60.432 C 258.914 58.967,256.954 58.423,255.385 59.226 M49.294 83.951 C 49.501 83.991,49.801 83.990,49.960 83.948 C 50.120 83.906,49.950 83.874,49.583 83.875 C 49.217 83.877,49.086 83.911,49.294 83.951 " stroke="none" fill="#040404" fill-rule="evenodd"></path><path id="path2" d="M41.958 11.429 C 41.615 11.754,41.333 12.069,41.333 12.128 C 41.333 12.186,41.633 11.941,42.000 11.583 C 42.610 10.988,42.741 10.831,42.625 10.835 C 42.602 10.836,42.302 11.103,41.958 11.429 M35.573 18.375 L 35.083 18.917 35.625 18.427 C 36.130 17.971,36.243 17.833,36.115 17.833 C 36.086 17.833,35.842 18.077,35.573 18.375 M53.167 43.000 C 53.643 43.550,54.070 44.000,54.116 44.000 C 54.162 44.000,53.810 43.550,53.333 43.000 C 52.857 42.450,52.430 42.000,52.384 42.000 C 52.338 42.000,52.690 42.450,53.167 43.000 M17.824 45.774 C 17.732 46.016,17.610 46.290,17.553 46.383 C 17.495 46.476,17.528 46.503,17.625 46.443 C 17.808 46.329,18.208 45.333,18.071 45.333 C 18.027 45.333,17.916 45.532,17.824 45.774 M43.054 46.542 C 42.868 46.748,42.657 47.029,42.584 47.167 C 42.443 47.432,42.481 47.396,43.157 46.625 C 43.377 46.373,43.521 46.167,43.475 46.167 C 43.429 46.167,43.240 46.335,43.054 46.542 M65.758 63.250 C 65.823 63.525,65.940 63.820,66.019 63.905 C 66.097 63.991,66.089 63.812,66.002 63.508 C 65.799 62.799,65.602 62.591,65.758 63.250 M15.703 65.250 C 15.705 65.433,15.763 65.808,15.833 66.083 C 15.948 66.532,15.961 66.541,15.964 66.167 C 15.965 65.938,15.907 65.563,15.833 65.333 C 15.729 65.007,15.701 64.989,15.703 65.250 M66.000 71.543 C 66.000 71.566,65.926 71.842,65.836 72.157 C 65.746 72.471,65.736 72.658,65.815 72.572 C 65.985 72.386,66.210 71.500,66.087 71.500 C 66.039 71.500,66.000 71.519,66.000 71.543 M40.250 81.586 C 40.433 81.736,40.733 81.931,40.917 82.021 L 41.250 82.185 40.917 81.914 C 40.733 81.764,40.433 81.569,40.250 81.479 L 39.917 81.315 40.250 81.586 M51.583 83.833 L 50.583 83.944 51.615 83.972 C 52.183 83.987,52.693 83.925,52.750 83.833 C 52.807 83.742,52.792 83.679,52.718 83.695 C 52.644 83.710,52.133 83.772,51.583 83.833 M47.377 83.953 C 47.631 83.991,48.006 83.990,48.211 83.951 C 48.416 83.911,48.208 83.880,47.750 83.881 C 47.292 83.882,47.124 83.915,47.377 83.953 M49.667 84.000 L 49.083 84.123 49.615 84.145 C 49.908 84.157,50.193 84.092,50.250 84.000 C 50.307 83.908,50.330 83.843,50.302 83.855 C 50.273 83.867,49.987 83.932,49.667 84.000 " stroke="none" fill="#b81818" fill-rule="evenodd"></path><path id="path3" d="M41.958 11.429 C 41.615 11.754,41.333 12.069,41.333 12.128 C 41.333 12.186,41.633 11.941,42.000 11.583 C 42.610 10.988,42.741 10.831,42.625 10.835 C 42.602 10.836,42.302 11.103,41.958 11.429 M35.573 18.375 L 35.083 18.917 35.625 18.427 C 36.130 17.971,36.243 17.833,36.115 17.833 C 36.086 17.833,35.842 18.077,35.573 18.375 M53.167 43.000 C 53.643 43.550,54.070 44.000,54.116 44.000 C 54.162 44.000,53.810 43.550,53.333 43.000 C 52.857 42.450,52.430 42.000,52.384 42.000 C 52.338 42.000,52.690 42.450,53.167 43.000 M17.824 45.774 C 17.732 46.016,17.610 46.290,17.553 46.383 C 17.495 46.476,17.528 46.503,17.625 46.443 C 17.808 46.329,18.208 45.333,18.071 45.333 C 18.027 45.333,17.916 45.532,17.824 45.774 M43.054 46.542 C 42.868 46.748,42.657 47.029,42.584 47.167 C 42.443 47.432,42.481 47.396,43.157 46.625 C 43.377 46.373,43.521 46.167,43.475 46.167 C 43.429 46.167,43.240 46.335,43.054 46.542 M65.758 63.250 C 65.823 63.525,65.940 63.820,66.019 63.905 C 66.097 63.991,66.089 63.812,66.002 63.508 C 65.799 62.799,65.602 62.591,65.758 63.250 M15.703 65.250 C 15.705 65.433,15.763 65.808,15.833 66.083 C 15.948 66.532,15.961 66.541,15.964 66.167 C 15.965 65.938,15.907 65.563,15.833 65.333 C 15.729 65.007,15.701 64.989,15.703 65.250 M66.000 71.543 C 66.000 71.566,65.926 71.842,65.836 72.157 C 65.746 72.471,65.736 72.658,65.815 72.572 C 65.985 72.386,66.210 71.500,66.087 71.500 C 66.039 71.500,66.000 71.519,66.000 71.543 M40.250 81.586 C 40.433 81.736,40.733 81.931,40.917 82.021 L 41.250 82.185 40.917 81.914 C 40.733 81.764,40.433 81.569,40.250 81.479 L 39.917 81.315 40.250 81.586 M51.583 83.833 L 50.583 83.944 51.615 83.972 C 52.183 83.987,52.693 83.925,52.750 83.833 C 52.807 83.742,52.792 83.679,52.718 83.695 C 52.644 83.710,52.133 83.772,51.583 83.833 M47.377 83.953 C 47.631 83.991,48.006 83.990,48.211 83.951 C 48.416 83.911,48.208 83.880,47.750 83.881 C 47.292 83.882,47.124 83.915,47.377 83.953 M49.667 84.000 L 49.083 84.123 49.615 84.145 C 49.908 84.157,50.193 84.092,50.250 84.000 C 50.307 83.908,50.330 83.843,50.302 83.855 C 50.273 83.867,49.987 83.932,49.667 84.000 " stroke="none" fill="#b81818" fill-rule="evenodd"></path><path id="path4" d="M41.958 11.429 C 41.615 11.754,41.333 12.069,41.333 12.128 C 41.333 12.186,41.633 11.941,42.000 11.583 C 42.610 10.988,42.741 10.831,42.625 10.835 C 42.602 10.836,42.302 11.103,41.958 11.429 M35.573 18.375 L 35.083 18.917 35.625 18.427 C 36.130 17.971,36.243 17.833,36.115 17.833 C 36.086 17.833,35.842 18.077,35.573 18.375 M53.167 43.000 C 53.643 43.550,54.070 44.000,54.116 44.000 C 54.162 44.000,53.810 43.550,53.333 43.000 C 52.857 42.450,52.430 42.000,52.384 42.000 C 52.338 42.000,52.690 42.450,53.167 43.000 M17.824 45.774 C 17.732 46.016,17.610 46.290,17.553 46.383 C 17.495 46.476,17.528 46.503,17.625 46.443 C 17.808 46.329,18.208 45.333,18.071 45.333 C 18.027 45.333,17.916 45.532,17.824 45.774 M43.054 46.542 C 42.868 46.748,42.657 47.029,42.584 47.167 C 42.443 47.432,42.481 47.396,43.157 46.625 C 43.377 46.373,43.521 46.167,43.475 46.167 C 43.429 46.167,43.240 46.335,43.054 46.542 M65.758 63.250 C 65.823 63.525,65.940 63.820,66.019 63.905 C 66.097 63.991,66.089 63.812,66.002 63.508 C 65.799 62.799,65.602 62.591,65.758 63.250 M15.703 65.250 C 15.705 65.433,15.763 65.808,15.833 66.083 C 15.948 66.532,15.961 66.541,15.964 66.167 C 15.965 65.938,15.907 65.563,15.833 65.333 C 15.729 65.007,15.701 64.989,15.703 65.250 M66.000 71.543 C 66.000 71.566,65.926 71.842,65.836 72.157 C 65.746 72.471,65.736 72.658,65.815 72.572 C 65.985 72.386,66.210 71.500,66.087 71.500 C 66.039 71.500,66.000 71.519,66.000 71.543 M40.250 81.586 C 40.433 81.736,40.733 81.931,40.917 82.021 L 41.250 82.185 40.917 81.914 C 40.733 81.764,40.433 81.569,40.250 81.479 L 39.917 81.315 40.250 81.586 M51.583 83.833 L 50.583 83.944 51.615 83.972 C 52.183 83.987,52.693 83.925,52.750 83.833 C 52.807 83.742,52.792 83.679,52.718 83.695 C 52.644 83.710,52.133 83.772,51.583 83.833 M47.377 83.953 C 47.631 83.991,48.006 83.990,48.211 83.951 C 48.416 83.911,48.208 83.880,47.750 83.881 C 47.292 83.882,47.124 83.915,47.377 83.953 M49.667 84.000 L 49.083 84.123 49.615 84.145 C 49.908 84.157,50.193 84.092,50.250 84.000 C 50.307 83.908,50.330 83.843,50.302 83.855 C 50.273 83.867,49.987 83.932,49.667 84.000 " stroke="none" fill="#b81818" fill-rule="evenodd"></path></g></svg>